# xmcd
#
# Track frame offsets:
#	150
#	14545
#	30264
#	46507
#	61568
#	73236
#	88237
#	101557
#	117304
#	134138
#	147121
#	162439
#	174991
#	188863
#
# Disc length: 2690 seconds
#
# Revision: 0
# Processed by: cddbd v1.5.2PL0 Copyright (c) Steve Scherf et al.
# Submitted via: dBpowerAMP V4.0
#
DISCID=bc0a800e
DTITLE=Mano Lima - Destino da Gente
DYEAR=2009
DGENRE=Nativista
TTITLE0=Destino da Gente
TTITLE1=Me Chamo Mano Lima
TTITLE2=Maneando Porco
TTITLE3=Tutano de Caracu
TTITLE4=Mata Bicheira
TTITLE5=Corpo de Cavalo
TTITLE6=Cambuchim
TTITLE7=Minha Filha Antônia
TTITLE8=João Manoel Aramburu
TTITLE9=Tropa de Mula
TTITLE10=Rincão de Timbauva
TTITLE11=Homem Valente e Cavalo Manso
TTITLE12=Sabedoria do Campeiro
TTITLE13=Tipo do Bicho
EXTD=
EXTT0=
EXTT1=
EXTT2=
EXTT3=
EXTT4=
EXTT5=
EXTT6=
EXTT7=
EXTT8=
EXTT9=
EXTT10=
EXTT11=
EXTT12=
EXTT13=
PLAYORDER=
